<svg width="21" height="20" viewBox="0 0 21 20" fill="none" xmlns="http://www.w3.org/2000/svg">
<path d="M18.4044 5.45366H18.1203V3.74911C18.1203 2.1582 14.5976 0.908203 10.1658 0.908203C5.73398 0.908203 2.21125 2.1582 2.21125 3.74911V5.45366H1.92716C1.45664 5.45366 1.07489 5.83505 1.07489 6.30593V9.14684C1.07489 9.61736 1.45664 9.99911 1.92716 9.99911H2.21125V15.6809C2.21125 16.3084 2.72013 16.8173 3.34762 16.8173V17.9537C3.34762 18.5811 3.8565 19.09 4.48398 19.09H5.62034C6.24783 19.09 6.75671 18.5811 6.75671 17.9537V16.8173H13.5749V17.9537C13.5749 18.5811 14.0838 19.09 14.7113 19.09H15.8476C16.4751 19.09 16.984 18.5811 16.984 17.9537V16.8173H17.2113C17.7794 16.8173 18.1203 16.3627 18.1203 15.9082V9.99911H18.4044C18.875 9.99911 19.2567 9.61736 19.2567 9.14684V6.30593C19.2567 5.83505 18.875 5.45366 18.4044 5.45366ZM5.05216 15.1127C4.42468 15.1127 3.9158 14.6039 3.9158 13.9764C3.9158 13.3489 4.42468 12.84 5.05216 12.84C5.67965 12.84 6.18853 13.3489 6.18853 13.9764C6.18853 14.6039 5.67965 15.1127 5.05216 15.1127ZM5.62034 11.1355C4.99286 11.1355 4.48398 10.6266 4.48398 9.99911V5.45366C4.48398 4.82617 4.99286 4.31729 5.62034 4.31729H14.7113C15.3387 4.31729 15.8476 4.82617 15.8476 5.45366V9.99911C15.8476 10.6266 15.3387 11.1355 14.7113 11.1355H5.62034ZM15.2794 15.1127C14.6519 15.1127 14.1431 14.6039 14.1431 13.9764C14.1431 13.3489 14.6519 12.84 15.2794 12.84C15.9069 12.84 16.4158 13.3489 16.4158 13.9764C16.4158 14.6039 15.9069 15.1127 15.2794 15.1127Z" fill="#434343"/>
</svg>
